<?xml version="1.0" encoding="UTF-8"?>
<!-- Generator: Adobe Illustrator 27.8.1, SVG Export Plug-In . SVG Version: 6.00 Build 0)  -->
<svg version="1.1" id="Layer_1" xmlns="http://www.w3.org/2000/svg" xmlns:xlink="http://www.w3.org/1999/xlink" x="0px" y="0px" viewBox="0 0 512 512" style="enable-background:new 0 0 512 512;" xml:space="preserve">
<g transform="translate(0.000000,512.000000) scale(0.100000,-0.100000)">
	<path d="M4706.9,4522.4c-3.6-3.1-42.1-55.3-86.7-115.9l-80.3-109.1l-185.4-33c-101.7-17.2-196.5-30.8-208.4-29.4   c-22.1,2.9-326.5,212.1-328.9,226.6c-0.8,4.8,48.3,77.9,108.9,161.2l111.9,153.4l-44.6,77.1l-43.9,78.1l-63.9,9.9   c-34.9,4.9-69.2,6.6-77,3.6c-6.2-2.7-62.3-73.6-124.2-158.8l-111.9-153.4l-78.2,49.9c-89.2,56.3-200.9,83.1-359.1,86.2   c-183.6,5.5-457.1-65.7-637.3-163.4c-136.8-74.6-235.7-137.8-225.3-145.2c2.8-2,61.1-7.9,129.4-13.8   c231-20.7,445.7-68.2,582.6-131.4c55.8-25.4,200.7-121.3,234-156.3c3.8-2.7-398.3-570.5-892-1259.2   C1832.1,2209.7,1217.7,1351.1,960.6,991.3L493.1,339.3l32.5-64.2c18.3-34.3,41.6-69.3,51.3-77.7c22.6-16.1,113.8-29.7,143.9-21.3   c14.3,4.1,124,150.5,401.9,539.5c1906.2,2664.5,2325.8,3246.9,2342.7,3254.7c11.7,4.5,59-24.9,170.1-102.4l153.8-109.3l30-177.6   c17.3-97.5,30.6-190.8,31.5-205.6c1-20.6-21.1-61.7-77.7-149.3l-79.1-121.3l172-123.7l173-124.3l103.6,15.9l105.2,16.1l424.7,595.7   l425.4,596.7l-16.4,96.9l-17.1,95.9l-175.1,127.3C4791.8,4472,4709.6,4526.2,4706.9,4522.4z"/>
	<path d="M2827.6,4084.1c-265.8,113.6-540.4,166.8-854.3,166.8c-176,0.1-461-57.2-658.3-132.9c-394.7-149.8-700.4-394.1-945.7-755.2   c-60.5-89.1-115-173.9-120.5-185.6c-5.2-13.3-18.6-42.2-29.9-64c-340.4-686.9-231.5-1556.8,267.2-2154   c103.9-123.6,91.1-121.6,161.8-24.1c62.6,86.1,71.5,112.5,43.1,132.7c-29.3,20.8-180.5,237.6-229.8,328.1   c-176.8,328.7-248,730.1-195.9,1099.3c21.4,148.1,80.4,359,130.5,465.4c146.1,309.5,331.8,536.8,588.9,724.8   c382.9,279,864.5,391.2,1341.7,313.3c106.8-17.6,299.5-72.2,378.7-108.6l32.3-14.5l66.4,93.4c43.6,61.3,63.3,97,57,100.1   S2840,4079.6,2827.6,4084.1z"/>
	<path d="M3413,3529l-64.4-90.6l41.8-51c22.9-27.7,54.8-68.8,69.3-90.4c15.4-22.3,29.3-40.7,31.6-39.5   c4.8,0.8,56.6,67.7,100.6,131.6l40.6,59.2l-59.5,72.1C3479.1,3634,3487.4,3633.7,3413,3529z"/>
	<path d="M3714.4,2812c2-7.1,16-65.4,31.5-127.5c34.7-141.1,39.4-174.3,50.5-298.6c23-263.4-21.7-554.1-120.8-797.5   c-38.1-93.6-44-107.9-101.1-212.2c-91.5-170.7-248.1-359.1-410.9-496.2c-106.1-89.3-268.1-191.5-391.5-247.2   c-309-141.1-674.3-195.4-997-147.9c-149,22.1-181.9,29.8-430.9,113.1c-13.1,3.6-134.3-163-131.3-180.8   c3.4-15.2,211.9-89.5,333.1-118.8c717.6-173.3,1452.5,51.4,1962.5,599.3c101.2,108.4,262.2,349,328.8,490.6   c70.3,148.9,143.2,385.4,167.4,541.4c27.6,180.7,29.9,421.8,4.3,597.7l-14.1,98.1l-142.5,101.3   C3773.3,2783,3712.1,2820.8,3714.4,2812z"/>
</g>
</svg>